<svg width="14" height="16" viewBox="0 0 14 16" fill="none" xmlns="http://www.w3.org/2000/svg">
<path d="M12.3334 6C12.0873 6 11.8565 6.06706 11.6582 6.18391C11.5837 5.51856 11.0179 5 10.3334 5C10.0078 5 9.70867 5.11784 9.47626 5.31413C9.24286 4.92644 8.81805 4.66666 8.33336 4.66666C8.09086 4.66666 7.86298 4.73175 7.6667 4.84569V1.33334C7.66667 0.597969 7.0687 0 6.33336 0C5.59801 0 5.00002 0.597969 5.00002 1.33334V10.2546C5.00002 10.4225 4.88933 10.5088 4.8418 10.5381C4.79426 10.5674 4.66633 10.6276 4.51758 10.5527L2.37695 9.48244C2.18195 9.38478 1.96355 9.33334 1.74545 9.33334C0.966796 9.33334 0.333359 9.96681 0.333359 10.7455V11C0.333359 11.0924 0.371765 11.1807 0.43914 11.2438L4.28648 14.8346C5.0918 15.5859 6.14195 16 7.24317 16H9.33333C11.7226 16 13.6667 14.056 13.6667 11.6667V7.33334C13.6667 6.59797 13.0687 6 12.3334 6ZM13 11.6667C13 13.6885 11.3552 15.3333 9.33336 15.3333H7.2432C6.31155 15.3333 5.42289 14.9831 4.74158 14.347L1.00002 10.8552V10.7455C1.00002 10.3343 1.33433 10 1.74545 10C1.86036 10 1.97592 10.0273 2.0788 10.0788L4.21942 11.1491C4.53161 11.3057 4.89552 11.2884 5.19239 11.1055C5.48927 10.9219 5.66667 10.6038 5.66667 10.2546V1.33334C5.66667 0.965844 5.96583 0.666687 6.33333 0.666687C6.70083 0.666687 6.99998 0.965844 6.99998 1.33334V6.33334C6.99998 6.51759 7.14908 6.66669 7.33333 6.66669C7.51758 6.66669 7.66667 6.51759 7.66667 6.33334V6C7.66667 5.6325 7.96583 5.33334 8.33333 5.33334C8.70083 5.33334 8.99998 5.6325 8.99998 6V6.33334C8.99998 6.334 8.99998 6.33466 8.99998 6.33531V6.33563C9.0013 6.51856 9.15005 6.66669 9.33333 6.66669C9.51758 6.66669 9.66667 6.51759 9.66667 6.33334V6.32812C9.66927 5.96322 9.96811 5.66666 10.3333 5.66666C10.7008 5.66666 11 5.96581 11 6.33331V7.33331C11 7.51756 11.1491 7.66666 11.3333 7.66666C11.5176 7.66666 11.6667 7.51756 11.6667 7.33331C11.6667 6.96581 11.9658 6.66666 12.3333 6.66666C12.7008 6.66666 13 6.96581 13 7.33334V11.6667Z" fill="black"/>
</svg>
